<?xml version="1.0" encoding="UTF-8"?>
<svg xmlns="http://www.w3.org/2000/svg" xmlns:xlink="http://www.w3.org/1999/xlink" width="27px" height="31px" viewBox="0 0 27 31" version="1.1">
<g id="surface1">
<path style=" stroke:none;fill-rule:nonzero;fill:rgb(100%,0%,0%);fill-opacity:1;" d="M 7.222656 28.714844 C 7.230469 28.6875 9.980469 20.226562 9.992188 20.175781 C 10 20.152344 5.144531 16.730469 5.128906 16.746094 C 4.976562 16.65625 4.773438 16.5 4.605469 16.417969 C 4.378906 16.300781 4.253906 16.566406 4.023438 16.699219 C 3.265625 17.132812 3.121094 17.1875 2.722656 17.1875 C 2.480469 17.1875 2.398438 17.167969 2.320312 17.089844 C 2.269531 17.039062 2.261719 17.023438 2.261719 16.933594 C 2.261719 16.875 2.273438 16.785156 2.289062 16.730469 C 2.304688 16.675781 2.328125 16.546875 2.34375 16.441406 C 2.378906 16.195312 2.40625 16.132812 2.5 16.074219 C 2.601562 16.011719 2.65625 15.996094 2.980469 15.949219 C 3.277344 15.902344 3.410156 15.875 3.425781 15.859375 C 3.429688 15.855469 3.410156 15.839844 3.378906 15.824219 C 3.304688 15.785156 3.136719 15.679688 3.054688 15.613281 C 2.820312 15.4375 2.816406 15.226562 3.046875 14.984375 L 3.089844 14.9375 L 2.984375 14.929688 C 2.726562 14.902344 2.648438 14.757812 2.773438 14.546875 C 2.804688 14.492188 2.859375 14.414062 2.898438 14.371094 C 2.945312 14.316406 2.960938 14.289062 2.945312 14.277344 C 2.910156 14.257812 2.554688 14.265625 2.269531 14.292969 C 1.957031 14.324219 1.707031 14.332031 1.644531 14.316406 C 1.609375 14.304688 1.585938 14.265625 1.523438 14.132812 C 1.421875 13.902344 1.40625 13.824219 1.445312 13.742188 C 1.492188 13.640625 1.542969 13.628906 2.007812 13.613281 C 2.230469 13.605469 2.535156 13.589844 2.683594 13.578125 C 3.109375 13.542969 3.324219 13.578125 3.535156 13.714844 C 3.65625 13.789062 3.871094 13.972656 3.949219 14.0625 C 4.050781 14.183594 4.179688 14.402344 4.269531 14.601562 C 4.457031 15.015625 4.289062 14.78125 4.441406 14.867188 L 4.53125 14.914062 L 6.488281 14.90625 C 7.566406 14.902344 9.1875 14.898438 10.09375 14.898438 L 11.738281 14.898438 L 13.148438 10.605469 C 13.921875 8.242188 14.566406 6.304688 14.574219 6.304688 C 14.582031 6.300781 15.144531 7.992188 15.824219 10.066406 C 16.503906 12.136719 17.136719 14.070312 17.234375 14.359375 L 17.40625 14.890625 L 21.980469 14.890625 C 24.570312 14.890625 26.558594 14.898438 26.5625 14.90625 C 26.570312 14.914062 24.90625 16.09375 22.867188 17.53125 C 20.828125 18.96875 19.160156 20.152344 19.160156 20.164062 C 19.15625 20.179688 21.664062 27.96875 21.824219 28.453125 C 21.871094 28.589844 21.875 28.621094 21.855469 28.613281 C 21.839844 28.609375 20.199219 27.453125 18.203125 26.042969 C 16.210938 24.632812 14.574219 23.480469 14.574219 23.480469 C 14.574219 23.480469 12.9375 24.652344 10.941406 26.082031 C 8.945312 27.507812 7.289062 28.691406 7.261719 28.710938 C 7.214844 28.738281 7.210938 28.742188 7.222656 28.714844 Z M 17.515625 21.011719 C 17.539062 20.976562 17.519531 20.914062 17.191406 19.910156 C 16.996094 19.324219 16.84375 18.84375 16.847656 18.839844 C 16.863281 18.824219 17.480469 18.832031 17.535156 18.847656 C 17.632812 18.875 17.714844 18.9375 17.828125 19.066406 C 18.019531 19.285156 18.226562 19.367188 18.53125 19.351562 C 18.78125 19.339844 19.023438 19.242188 19.199219 19.082031 C 19.28125 19.003906 19.398438 18.859375 19.4375 18.785156 L 19.472656 18.714844 L 18.535156 18.714844 L 18.488281 18.660156 C 18.464844 18.625 18.425781 18.558594 18.402344 18.507812 C 18.359375 18.421875 18.355469 18.394531 18.355469 18.222656 C 18.355469 18.042969 18.359375 18.027344 18.410156 17.925781 C 18.5 17.75 18.480469 17.753906 19.003906 17.75 C 19.253906 17.746094 19.457031 17.738281 19.457031 17.730469 C 19.457031 17.695312 19.371094 17.566406 19.285156 17.472656 C 19.097656 17.269531 18.859375 17.167969 18.570312 17.167969 C 18.242188 17.164062 18.015625 17.257812 17.792969 17.484375 C 17.574219 17.703125 17.597656 17.699219 16.976562 17.691406 L 16.460938 17.6875 L 15.691406 15.34375 C 15.265625 14.058594 14.910156 12.976562 14.898438 12.945312 C 14.785156 12.675781 14.519531 12.628906 14.363281 12.855469 C 14.3125 12.929688 14.269531 13.0625 13.367188 15.710938 L 12.695312 17.699219 L 12.328125 17.695312 C 11.882812 17.6875 11.878906 17.6875 11.648438 17.453125 C 11.507812 17.308594 11.464844 17.28125 11.328125 17.214844 C 11.113281 17.109375 10.902344 17.066406 10.667969 17.078125 C 10.261719 17.097656 9.953125 17.261719 9.730469 17.578125 L 9.660156 17.675781 L 10.683594 17.699219 L 10.742188 17.761719 C 10.882812 17.917969 10.941406 18.089844 10.929688 18.3125 C 10.917969 18.488281 10.890625 18.574219 10.796875 18.707031 C 10.683594 18.875 10.726562 18.867188 10.167969 18.851562 C 9.902344 18.84375 9.683594 18.839844 9.679688 18.839844 C 9.664062 18.851562 9.773438 19.003906 9.863281 19.09375 C 10.109375 19.339844 10.402344 19.460938 10.75 19.460938 C 10.964844 19.460938 11.074219 19.4375 11.273438 19.339844 C 11.417969 19.273438 11.457031 19.242188 11.542969 19.148438 C 11.597656 19.085938 11.652344 19.015625 11.667969 18.984375 C 11.699219 18.917969 11.75 18.886719 11.878906 18.855469 C 11.96875 18.835938 12.304688 18.820312 12.304688 18.839844 C 12.304688 18.84375 12.144531 19.316406 11.949219 19.894531 C 11.574219 21 11.574219 21 11.65625 21.027344 C 11.675781 21.03125 11.703125 21.03125 11.722656 21.019531 C 11.742188 21.007812 11.921875 20.65625 12.1875 19.917969 L 12.621094 18.832031 L 16.523438 18.832031 L 16.949219 19.933594 C 17.1875 20.539062 17.386719 21.035156 17.398438 21.042969 C 17.441406 21.058594 17.492188 21.046875 17.515625 21.011719 Z M 11.769531 18.71875 C 11.746094 18.691406 11.742188 18.636719 11.742188 18.261719 C 11.742188 17.792969 11.746094 17.78125 11.832031 17.800781 L 11.875 17.8125 L 11.875 18.261719 C 11.875 18.710938 11.871094 18.75 11.816406 18.75 C 11.804688 18.75 11.785156 18.734375 11.769531 18.71875 Z M 17.605469 18.695312 C 17.582031 18.664062 17.5625 18.179688 17.578125 17.972656 C 17.59375 17.792969 17.617188 17.746094 17.675781 17.78125 C 17.707031 17.804688 17.707031 17.824219 17.710938 18.246094 C 17.710938 18.503906 17.707031 18.691406 17.695312 18.699219 C 17.675781 18.722656 17.628906 18.71875 17.605469 18.695312 Z M 13.085938 17.667969 C 13.171875 17.445312 14.59375 13.898438 14.597656 13.898438 C 14.605469 13.898438 14.828125 14.464844 15.09375 15.152344 C 15.363281 15.84375 15.691406 16.695312 15.832031 17.050781 L 16.082031 17.695312 L 14.578125 17.695312 C 13.15625 17.695312 13.078125 17.695312 13.085938 17.667969 Z M 14.558594 13.679688 C 14.542969 13.667969 14.527344 13.644531 14.523438 13.632812 C 14.523438 13.621094 14.488281 13.515625 14.445312 13.394531 C 14.363281 13.164062 14.359375 13.144531 14.386719 13.113281 C 14.410156 13.089844 14.484375 13.085938 14.484375 13.109375 C 14.484375 13.136719 14.566406 13.179688 14.617188 13.179688 C 14.652344 13.179688 14.6875 13.160156 14.71875 13.125 C 14.777344 13.066406 14.796875 13.066406 14.835938 13.109375 C 14.875 13.148438 14.863281 13.191406 14.792969 13.257812 C 14.746094 13.300781 14.640625 13.339844 14.59375 13.328125 C 14.574219 13.320312 14.582031 13.347656 14.636719 13.496094 L 14.6875 13.640625 L 14.648438 13.671875 C 14.605469 13.707031 14.597656 13.707031 14.558594 13.679688 Z M 1.285156 19.601562 C 1.199219 19.507812 1.238281 18.828125 1.425781 17.285156 C 1.46875 16.917969 1.507812 16.574219 1.515625 16.523438 L 1.523438 16.433594 L 1.625 16.398438 C 1.683594 16.375 1.730469 16.359375 1.734375 16.359375 C 1.742188 16.359375 1.734375 16.4375 1.71875 16.53125 C 1.632812 17.167969 1.460938 18.757812 1.46875 18.851562 C 1.480469 18.941406 1.90625 17.140625 2.050781 16.394531 C 2.074219 16.285156 2.097656 16.183594 2.101562 16.171875 C 2.109375 16.164062 2.167969 16.109375 2.234375 16.054688 C 2.367188 15.941406 2.367188 15.941406 2.289062 16.140625 C 2.265625 16.199219 2.238281 16.3125 2.226562 16.394531 C 2.214844 16.476562 2.191406 16.609375 2.171875 16.691406 C 2.152344 16.769531 2.140625 16.867188 2.140625 16.902344 C 2.140625 17.011719 1.84375 18.308594 1.6875 18.886719 C 1.574219 19.296875 1.46875 19.582031 1.410156 19.617188 C 1.371094 19.644531 1.316406 19.636719 1.285156 19.601562 Z M 1.089844 16.246094 C 1.074219 16.230469 1.0625 16.203125 1.0625 16.1875 C 1.0625 16.132812 1.160156 15.996094 1.25 15.925781 C 1.324219 15.867188 1.363281 15.851562 1.46875 15.832031 C 1.640625 15.804688 1.925781 15.71875 2.054688 15.65625 C 2.113281 15.628906 2.171875 15.609375 2.183594 15.613281 C 2.226562 15.628906 2.214844 15.714844 2.160156 15.800781 C 2.109375 15.878906 1.878906 16.066406 1.851562 16.050781 C 1.84375 16.046875 1.839844 16.046875 1.839844 16.058594 C 1.839844 16.082031 1.589844 16.195312 1.449219 16.234375 C 1.289062 16.28125 1.128906 16.285156 1.089844 16.246094 Z M 0.863281 15.683594 C 0.816406 15.671875 0.757812 15.644531 0.734375 15.621094 C 0.507812 15.410156 1.242188 15.039062 1.890625 15.039062 C 2.503906 15.039062 2.4375 15.378906 1.78125 15.59375 C 1.457031 15.699219 1.066406 15.738281 0.863281 15.683594 Z M 2.433594 15.417969 C 2.429688 15.40625 2.4375 15.378906 2.449219 15.355469 C 2.464844 15.332031 2.472656 15.324219 2.472656 15.339844 C 2.472656 15.382812 2.445312 15.433594 2.433594 15.417969 Z M 2.476562 15.128906 C 2.464844 15.101562 2.425781 15.050781 2.398438 15.027344 L 2.339844 14.976562 L 2.394531 14.933594 C 2.554688 14.816406 2.578125 14.648438 2.457031 14.519531 C 2.433594 14.496094 2.429688 14.46875 2.433594 14.4375 C 2.445312 14.390625 2.449219 14.386719 2.546875 14.386719 C 2.648438 14.386719 2.652344 14.390625 2.644531 14.429688 C 2.636719 14.449219 2.605469 14.621094 2.570312 14.8125 C 2.539062 15 2.507812 15.160156 2.503906 15.171875 C 2.5 15.179688 2.488281 15.160156 2.476562 15.128906 Z M 0.96875 15 C 0.785156 14.875 1.015625 14.671875 1.464844 14.5625 C 1.65625 14.515625 2.066406 14.496094 2.214844 14.527344 C 2.34375 14.554688 2.429688 14.613281 2.4375 14.675781 C 2.445312 14.742188 2.40625 14.792969 2.304688 14.859375 C 2.21875 14.914062 2.214844 14.914062 2.09375 14.894531 C 1.863281 14.859375 1.457031 14.910156 1.171875 15.003906 C 1.046875 15.046875 1.042969 15.046875 0.96875 15 Z M 1.128906 14.511719 C 1.085938 14.488281 1.042969 14.402344 1.042969 14.34375 C 1.042969 14.230469 1.167969 14.097656 1.308594 14.066406 C 1.351562 14.054688 1.359375 14.0625 1.410156 14.175781 C 1.441406 14.242188 1.46875 14.304688 1.46875 14.316406 C 1.46875 14.324219 1.488281 14.355469 1.515625 14.378906 C 1.550781 14.410156 1.554688 14.425781 1.535156 14.429688 C 1.523438 14.433594 1.445312 14.453125 1.359375 14.476562 C 1.277344 14.496094 1.199219 14.519531 1.183594 14.523438 C 1.167969 14.527344 1.144531 14.519531 1.128906 14.511719 Z M 1.980469 13.488281 C 1.980469 13.445312 2.140625 12.59375 2.203125 12.300781 C 2.277344 11.960938 2.371094 11.613281 2.429688 11.492188 C 2.453125 11.441406 2.492188 11.386719 2.519531 11.367188 C 2.558594 11.34375 2.566406 11.328125 2.554688 11.28125 C 2.550781 11.246094 2.519531 11.171875 2.492188 11.109375 C 2.390625 10.890625 2.425781 10.765625 2.695312 10.421875 C 2.847656 10.230469 2.953125 10.0625 3.015625 9.917969 C 3.058594 9.808594 3.089844 9.777344 3.148438 9.777344 C 3.199219 9.777344 3.25 9.835938 3.242188 9.882812 C 3.207031 10.136719 3.222656 10.3125 3.304688 10.605469 C 3.398438 10.925781 3.386719 10.964844 3.117188 11.242188 C 2.96875 11.398438 2.953125 11.425781 2.992188 11.464844 C 3.03125 11.503906 3.015625 12.007812 2.964844 12.421875 C 2.917969 12.785156 2.816406 13.4375 2.804688 13.453125 C 2.800781 13.453125 2.753906 13.457031 2.703125 13.453125 L 2.605469 13.445312 L 2.65625 13.140625 C 2.761719 12.476562 2.839844 11.75 2.820312 11.625 C 2.808594 11.570312 2.800781 11.558594 2.753906 11.546875 C 2.628906 11.523438 2.621094 11.527344 2.574219 11.671875 C 2.476562 11.976562 2.347656 12.550781 2.234375 13.203125 C 2.183594 13.492188 2.183594 13.492188 2.136719 13.492188 C 2.113281 13.492188 2.066406 13.496094 2.035156 13.503906 C 1.992188 13.511719 1.980469 13.507812 1.980469 13.488281 Z M 2.933594 10.917969 C 2.957031 10.875 2.957031 10.867188 2.925781 10.835938 C 2.867188 10.769531 2.777344 10.796875 2.777344 10.878906 C 2.777344 10.976562 2.886719 11.003906 2.933594 10.917969 Z M 2.933594 10.917969 "/>
</g>
</svg>
